<svg width="16" height="16" viewBox="0 0 16 16" fill="none" xmlns="http://www.w3.org/2000/svg">
<g clip-path="url(#clip0_146_5351)">
<path d="M1.68596 9.84658C1.54419 10.7759 2.17801 11.421 2.95405 11.7425C5.92922 12.975 10.0695 12.975 13.0446 11.7425C13.8207 11.421 14.4545 10.7759 14.3127 9.84658C14.2256 9.27543 13.7948 8.79985 13.4756 8.33544C13.0575 7.71967 13.016 7.04805 13.0159 6.3335C13.0159 3.57207 10.7699 1.3335 7.99935 1.3335C5.22877 1.3335 2.98277 3.57207 2.98277 6.3335C2.9827 7.04805 2.94116 7.71967 2.52309 8.33544C2.20391 8.79985 1.77309 9.27543 1.68596 9.84658Z" fill="#DBD7D1" stroke="#585755" stroke-width="1.5" stroke-linecap="round" stroke-linejoin="round"/>
<path d="M5.33203 12.667C5.63769 13.8171 6.71572 14.667 7.9987 14.667C9.28168 14.667 10.3597 13.8171 10.6654 12.667" stroke="#585755" stroke-width="1.5" stroke-linecap="round" stroke-linejoin="round"/>
</g>
<defs>
<clipPath id="clip0_146_5351">
<rect width="16" height="16" fill="white"/>
</clipPath>
</defs>
</svg>
