<svg width="16" height="16" viewBox="0 0 16 16" fill="none" xmlns="http://www.w3.org/2000/svg">
<g clip-path="url(#clip0_62_143)">
<path d="M1.3335 12C1.3335 10.9731 1.3335 10.4596 1.56465 10.0824C1.69399 9.87133 1.87145 9.69387 2.08252 9.56453C2.45972 9.33337 2.9732 9.33337 4.00016 9.33337C5.02712 9.33337 5.5406 9.33337 5.91781 9.56453C6.12887 9.69387 6.30633 9.87133 6.43568 10.0824C6.66683 10.4596 6.66683 10.9731 6.66683 12C6.66683 13.027 6.66683 13.5405 6.43568 13.9177C6.30633 14.1288 6.12887 14.3062 5.91781 14.4356C5.5406 14.6667 5.02712 14.6667 4.00016 14.6667C2.9732 14.6667 2.45972 14.6667 2.08252 14.4356C1.87145 14.3062 1.69399 14.1288 1.56465 13.9177C1.3335 13.5405 1.3335 13.027 1.3335 12Z" fill="#E2AC64" stroke="#101413" stroke-width="1.5"/>
<path d="M9.3335 12C9.3335 10.9731 9.3335 10.4596 9.56465 10.0824C9.69399 9.87133 9.87145 9.69387 10.0825 9.56453C10.4597 9.33337 10.9732 9.33337 12.0002 9.33337C13.0271 9.33337 13.5406 9.33337 13.9178 9.56453C14.1289 9.69387 14.3063 9.87133 14.4357 10.0824C14.6668 10.4596 14.6668 10.9731 14.6668 12C14.6668 13.027 14.6668 13.5405 14.4357 13.9177C14.3063 14.1288 14.1289 14.3062 13.9178 14.4356C13.5406 14.6667 13.0271 14.6667 12.0002 14.6667C10.9732 14.6667 10.4597 14.6667 10.0825 14.4356C9.87145 14.3062 9.69399 14.1288 9.56465 13.9177C9.3335 13.5405 9.3335 13.027 9.3335 12Z" fill="#E2AC64" stroke="#101413" stroke-width="1.5"/>
<path d="M1.3335 4.00004C1.3335 2.97308 1.3335 2.4596 1.56465 2.0824C1.69399 1.87133 1.87145 1.69387 2.08252 1.56453C2.45972 1.33337 2.9732 1.33337 4.00016 1.33337C5.02712 1.33337 5.5406 1.33337 5.91781 1.56453C6.12887 1.69387 6.30633 1.87133 6.43568 2.0824C6.66683 2.4596 6.66683 2.97308 6.66683 4.00004C6.66683 5.027 6.66683 5.54048 6.43568 5.91769C6.30633 6.12875 6.12887 6.30621 5.91781 6.43555C5.5406 6.66671 5.02712 6.66671 4.00016 6.66671C2.9732 6.66671 2.45972 6.66671 2.08252 6.43555C1.87145 6.30621 1.69399 6.12875 1.56465 5.91769C1.3335 5.54048 1.3335 5.027 1.3335 4.00004Z" fill="#E2AC64" stroke="#101413" stroke-width="1.5"/>
<path d="M9.3335 4.00004C9.3335 2.97308 9.3335 2.4596 9.56465 2.0824C9.69399 1.87133 9.87145 1.69387 10.0825 1.56453C10.4597 1.33337 10.9732 1.33337 12.0002 1.33337C13.0271 1.33337 13.5406 1.33337 13.9178 1.56453C14.1289 1.69387 14.3063 1.87133 14.4357 2.0824C14.6668 2.4596 14.6668 2.97308 14.6668 4.00004C14.6668 5.027 14.6668 5.54048 14.4357 5.91769C14.3063 6.12875 14.1289 6.30621 13.9178 6.43555C13.5406 6.66671 13.0271 6.66671 12.0002 6.66671C10.9732 6.66671 10.4597 6.66671 10.0825 6.43555C9.87145 6.30621 9.69399 6.12875 9.56465 5.91769C9.3335 5.54048 9.3335 5.027 9.3335 4.00004Z" fill="#E2AC64" stroke="#101413" stroke-width="1.5"/>
</g>
<defs>
<clipPath id="clip0_62_143">
<rect width="16" height="16" fill="white"/>
</clipPath>
</defs>
</svg>
