
    <svg viewBox="0 0 18 18" fill="none" xmlns="http://www.w3.org/2000/svg">
      <path
        fill-rule="evenodd"
        clip-rule="evenodd"
        d="M8.99994 6.64168C7.69511 6.64168 6.6416 7.69519 6.6416 9.00001C6.6416 9.42533 6.75321 9.82209 6.95018 10.1659L10.1658 6.95025C9.82201 6.75328 9.42525 6.64168 8.99994 6.64168ZM5.3916 9.00001C5.3916 7.00483 7.00476 5.39168 8.99994 5.39168C9.99811 5.39168 10.8967 5.79621 11.5502 6.44974C11.7943 6.69381 11.7943 7.08954 11.5502 7.33362L7.33354 11.5503C7.08947 11.7944 6.69374 11.7944 6.44966 11.5503C5.79613 10.8968 5.3916 9.99819 5.3916 9.00001Z"
        fill="#57575B"
      />
      <path
        fill-rule="evenodd"
        clip-rule="evenodd"
        d="M0.881115 6.50581C2.87355 3.37384 5.79322 1.48334 8.99987 1.48334C10.8746 1.48334 12.6711 2.13634 14.2262 3.30937C14.5018 3.51723 14.5567 3.90913 14.3488 4.1847C14.141 4.46028 13.7491 4.51517 13.4735 4.30731C12.112 3.28033 10.5752 2.73334 8.99987 2.73334C6.32333 2.73334 3.75978 4.30934 1.93555 7.17712L1.93503 7.17794C1.63954 7.64087 1.4707 8.30354 1.4707 9.00417C1.4707 9.7048 1.63954 10.3675 1.93503 10.8304L1.93532 10.8308C2.56346 11.8168 3.29079 12.6609 4.07406 13.3345C4.33577 13.5595 4.36547 13.9542 4.1404 14.2159C3.91533 14.4776 3.52072 14.5073 3.25901 14.2822C2.37561 13.5225 1.56961 12.5832 0.88109 11.5025C0.426778 10.7905 0.220703 9.87836 0.220703 9.00417C0.220703 8.12997 0.426785 7.21782 0.881115 6.50581Z"
        fill="#57575B"
      />
      <path
        fill-rule="evenodd"
        clip-rule="evenodd"
        d="M15.3167 5.12134C15.5857 4.90499 15.9791 4.94765 16.1954 5.21662C16.5153 5.61434 16.8296 6.04172 17.1195 6.49845C17.5734 7.21032 17.7793 8.12204 17.7793 8.99584C17.7793 9.87005 17.5732 10.7822 17.1189 11.4942C15.1264 14.6262 12.2067 16.5167 9.0001 16.5167C7.88632 16.5167 6.79579 16.2812 5.77423 15.851C5.4561 15.7171 5.30679 15.3506 5.44074 15.0325C5.57469 14.7143 5.94117 14.565 6.2593 14.699C7.13774 15.0689 8.06388 15.2667 9.0001 15.2667C11.6766 15.2667 14.2402 13.6907 16.0644 10.8229L16.0649 10.8221C16.3604 10.3591 16.5293 9.69647 16.5293 8.99584C16.5293 8.29522 16.3604 7.63255 16.0649 7.16962L16.0641 7.16823C15.8039 6.7583 15.5182 6.36901 15.2214 6.00007C15.0051 5.7311 15.0477 5.33768 15.3167 5.12134Z"
        fill="#57575B"
      />
      <path
        fill-rule="evenodd"
        clip-rule="evenodd"
        d="M12.0386 8.96869C12.3781 9.03129 12.6025 9.35721 12.5399 9.69667C12.2763 11.1265 11.1185 12.2843 9.68864 12.548C9.34919 12.6106 9.02326 12.3861 8.96067 12.0467C8.89807 11.7072 9.12251 11.3813 9.46197 11.3187C10.3821 11.149 11.141 10.3901 11.3107 9.46999C11.3733 9.13054 11.6992 8.9061 12.0386 8.96869Z"
        fill="#57575B"
      />
      <path
        fill-rule="evenodd"
        clip-rule="evenodd"
        d="M7.33393 10.6664C7.57801 10.9105 7.57801 11.3062 7.33393 11.5503L1.10893 17.7753C0.864856 18.0194 0.469128 18.0194 0.22505 17.7753C-0.0190272 17.5312 -0.0190272 17.1355 0.22505 16.8914L6.45005 10.6664C6.69413 10.4223 7.08986 10.4223 7.33393 10.6664Z"
        fill="#57575B"
      />
      <path
        fill-rule="evenodd"
        clip-rule="evenodd"
        d="M17.7753 0.22473C18.0194 0.468808 18.0194 0.864536 17.7753 1.10861L11.5503 7.33361C11.3063 7.57769 10.9105 7.57769 10.6665 7.33361C10.4224 7.08954 10.4224 6.69381 10.6665 6.44973L16.8915 0.22473C17.1355 -0.0193477 17.5313 -0.0193477 17.7753 0.22473Z"
        fill="#57575B"
      />
    </svg>