<svg width="14" height="15" viewBox="0 0 14 15" fill="none" xmlns="http://www.w3.org/2000/svg">
<path d="M4.90497 7.8374C3.246 6.59708 2.06376 5.23277 1.41822 4.46578C1.2184 4.22835 1.15292 4.0546 1.11355 3.74854C0.978743 2.70054 0.911339 2.17654 1.21864 1.83827C1.52593 1.5 2.06936 1.5 3.15622 1.5H10.8438C11.9306 1.5 12.4741 1.5 12.7814 1.83827C13.0887 2.17654 13.0213 2.70054 12.8864 3.74854C12.8471 4.05461 12.7816 4.22836 12.5818 4.46578C11.9353 5.23375 10.7507 6.60047 9.08838 7.84236C8.93799 7.95472 8.83885 8.13782 8.82047 8.34093C8.65579 10.1613 8.50393 11.1584 8.40941 11.6628C8.25684 12.4771 7.10211 12.9671 6.48401 13.4042C6.11604 13.6644 5.66953 13.3546 5.62185 12.9519C5.53095 12.1841 5.35974 10.6242 5.17285 8.34093C5.15606 8.13596 5.05657 7.95072 4.90497 7.8374Z" stroke="#101413" stroke-width="1.5" stroke-linecap="round" stroke-linejoin="round"/>
</svg>
