  <svg
    width="16"
    height="16"
    viewBox="0 0 16 16"
    fill="none"
    xmlns="http://www.w3.org/2000/svg"
  >
    <path
      d="M1.3335 11.9999C1.3335 10.973 1.3335 10.4595 1.56465 10.0823C1.69399 9.87121 1.87145 9.69375 2.08252 9.5644C2.45972 9.33325 2.9732 9.33325 4.00016 9.33325C5.02712 9.33325 5.5406 9.33325 5.91781 9.5644C6.12887 9.69375 6.30633 9.87121 6.43568 10.0823C6.66683 10.4595 6.66683 10.973 6.66683 11.9999C6.66683 13.0269 6.66683 13.5404 6.43568 13.9176C6.30633 14.1286 6.12887 14.3061 5.91781 14.4354C5.5406 14.6666 5.02712 14.6666 4.00016 14.6666C2.9732 14.6666 2.45972 14.6666 2.08252 14.4354C1.87145 14.3061 1.69399 14.1286 1.56465 13.9176C1.3335 13.5404 1.3335 13.0269 1.3335 11.9999Z"
      fill="#DBD7D1"
      stroke="#585755"
      strokeWidth="1.5"
    />
    <path
      d="M9.3335 11.9999C9.3335 10.973 9.3335 10.4595 9.56465 10.0823C9.69399 9.87121 9.87145 9.69375 10.0825 9.5644C10.4597 9.33325 10.9732 9.33325 12.0002 9.33325C13.0271 9.33325 13.5406 9.33325 13.9178 9.5644C14.1289 9.69375 14.3063 9.87121 14.4357 10.0823C14.6668 10.4595 14.6668 10.973 14.6668 11.9999C14.6668 13.0269 14.6668 13.5404 14.4357 13.9176C14.3063 14.1286 14.1289 14.3061 13.9178 14.4354C13.5406 14.6666 13.0271 14.6666 12.0002 14.6666C10.9732 14.6666 10.4597 14.6666 10.0825 14.4354C9.87145 14.3061 9.69399 14.1286 9.56465 13.9176C9.3335 13.5404 9.3335 13.0269 9.3335 11.9999Z"
      fill="#DBD7D1"
      stroke="#585755"
      strokeWidth="1.5"
    />
    <path
      d="M1.3335 3.99992C1.3335 2.97296 1.3335 2.45948 1.56465 2.08227C1.69399 1.87121 1.87145 1.69375 2.08252 1.5644C2.45972 1.33325 2.9732 1.33325 4.00016 1.33325C5.02712 1.33325 5.5406 1.33325 5.91781 1.5644C6.12887 1.69375 6.30633 1.87121 6.43568 2.08227C6.66683 2.45948 6.66683 2.97296 6.66683 3.99992C6.66683 5.02688 6.66683 5.54036 6.43568 5.91756C6.30633 6.12863 6.12887 6.30609 5.91781 6.43543C5.5406 6.66658 5.02712 6.66658 4.00016 6.66658C2.9732 6.66658 2.45972 6.66658 2.08252 6.43543C1.87145 6.30609 1.69399 6.12863 1.56465 5.91756C1.3335 5.54036 1.3335 5.02688 1.3335 3.99992Z"
      fill="#DBD7D1"
      stroke="#585755"
      strokeWidth="1.5"
    />
    <path
      d="M9.3335 3.99992C9.3335 2.97296 9.3335 2.45948 9.56465 2.08227C9.69399 1.87121 9.87145 1.69375 10.0825 1.5644C10.4597 1.33325 10.9732 1.33325 12.0002 1.33325C13.0271 1.33325 13.5406 1.33325 13.9178 1.5644C14.1289 1.69375 14.3063 1.87121 14.4357 2.08227C14.6668 2.45948 14.6668 2.97296 14.6668 3.99992C14.6668 5.02688 14.6668 5.54036 14.4357 5.91756C14.3063 6.12863 14.1289 6.30609 13.9178 6.43543C13.5406 6.66658 13.0271 6.66658 12.0002 6.66658C10.9732 6.66658 10.4597 6.66658 10.0825 6.43543C9.87145 6.30609 9.69399 6.12863 9.56465 5.91756C9.3335 5.54036 9.3335 5.02688 9.3335 3.99992Z"
      fill="#DBD7D1"
      stroke="#585755"
      strokeWidth="1.5"
    />
  </svg>