<svg width="17" height="16" viewBox="0 0 17 16" fill="none" xmlns="http://www.w3.org/2000/svg">
<path d="M14.6945 8.6665H2.30579C1.29273 8.6665 2.15612 10.1585 2.6131 10.3872L4.18703 11.1748C4.34436 11.2535 4.42302 11.2929 4.48819 11.3505C5.07351 11.8676 5.18034 12.7792 5.92007 13.1754C6.21462 13.3332 6.56364 13.3332 7.26168 13.3332H9.73865C10.4367 13.3332 10.7857 13.3332 11.0803 13.1754C11.82 12.7792 11.9268 11.8676 12.5121 11.3505C12.5773 11.2929 12.656 11.2535 12.8133 11.1748L14.3872 10.3872C14.8442 10.1585 15.7076 8.6665 14.6945 8.6665Z" stroke="#101413" stroke-linecap="round" stroke-linejoin="round"/>
<path d="M10.5 8.6665C10.5 6.45736 8.70914 4.6665 6.5 4.6665C4.29086 4.6665 2.5 6.45736 2.5 8.6665" stroke="#101413" stroke-linecap="round" stroke-linejoin="round"/>
<path d="M14.5 8.66683C14.5 6.82588 13.0166 5.3335 11.1867 5.3335C10.5707 5.3335 9.99406 5.50271 9.5 5.79733" stroke="#101413" stroke-linecap="round" stroke-linejoin="round"/>
<path d="M5.1665 8.14799C5.1665 7.32979 5.76346 6.6665 6.49984 6.6665C7.23622 6.6665 7.83317 7.32979 7.83317 8.14799V9.33317" stroke="#101413" stroke-linecap="round" stroke-linejoin="round"/>
<path d="M6.5 4.37024C6.7875 3.19331 8.05211 2.45479 9.3246 2.72069C10.5971 2.9866 11.3956 4.15624 11.1081 5.33317" stroke="#101413" stroke-linecap="round" stroke-linejoin="round"/>
</svg>
