<svg width="16" height="16" viewBox="0 0 16 16" fill="none" xmlns="http://www.w3.org/2000/svg">
<path d="M13 3.66699L12.7321 8.00449M3 3.66699L3.40307 10.3502C3.5063 12.0618 3.55792 12.9176 3.98579 13.533C4.19733 13.8373 4.46987 14.0941 4.78604 14.2871C5.23356 14.5604 5.78738 14.6424 6.66667 14.667" stroke="#A10603" stroke-width="1.5" stroke-linecap="round"/>
<path d="M13.3327 10L8.66602 14.6664M13.3327 14.6667L8.66602 10.0003" stroke="#A10603" stroke-width="1.5" stroke-linecap="round" stroke-linejoin="round"/>
<path d="M2 3.66683H14M10.7038 3.66683L10.2487 2.72798C9.94638 2.10433 9.79522 1.79251 9.53448 1.59803C9.47664 1.5549 9.4154 1.51652 9.35135 1.4833C9.06261 1.3335 8.71608 1.3335 8.02302 1.3335C7.31255 1.3335 6.95732 1.3335 6.66379 1.48958C6.59873 1.52417 6.53666 1.56409 6.4782 1.60894C6.21443 1.8113 6.06709 2.13453 5.7724 2.781L5.36862 3.66683" stroke="#A10603" stroke-width="1.5" stroke-linecap="round"/>
</svg>
