<svg width="16" height="14" viewBox="0 0 16 14" fill="none" xmlns="http://www.w3.org/2000/svg">
<path d="M13.8494 11C14.3489 11 14.7462 10.6856 15.103 10.2461C15.8333 9.3463 14.6342 8.62723 14.1769 8.27507C13.712 7.91708 13.1929 7.71428 12.6667 7.66667M12 6.33333C12.9205 6.33333 13.6667 5.58714 13.6667 4.66667C13.6667 3.74619 12.9205 3 12 3" stroke="#585755" stroke-width="1.5" stroke-linecap="round"/>
<path d="M2.15048 11C1.65094 11 1.25362 10.6856 0.896868 10.2461C0.166563 9.3463 1.36562 8.62723 1.82293 8.27507C2.28782 7.91708 2.80689 7.71428 3.33317 7.66667M3.6665 6.33333C2.74603 6.33333 1.99984 5.58714 1.99984 4.66667C1.99984 3.74619 2.74603 3 3.6665 3" stroke="#585755" stroke-width="1.5" stroke-linecap="round"/>
<path d="M5.38904 9.07282C4.70785 9.49403 2.92183 10.3541 4.00964 11.4303C4.54102 11.956 5.13285 12.332 5.87692 12.332H10.1228C10.8668 12.332 11.4587 11.956 11.99 11.4303C13.0778 10.3541 11.2918 9.49403 10.6106 9.07282C9.01327 8.0851 6.98641 8.0851 5.38904 9.07282Z" stroke="#585755" stroke-width="1.5" stroke-linecap="round" stroke-linejoin="round"/>
<path d="M10.3332 3.99935C10.3332 5.28801 9.2885 6.33268 7.99984 6.33268C6.71117 6.33268 5.6665 5.28801 5.6665 3.99935C5.6665 2.71068 6.71117 1.66602 7.99984 1.66602C9.2885 1.66602 10.3332 2.71068 10.3332 3.99935Z" stroke="#585755" stroke-width="1.5"/>
</svg>
