<svg width="17" height="16" viewBox="0 0 17 16" fill="none" xmlns="http://www.w3.org/2000/svg">
<g clip-path="url(#clip0_878_2066)">
<path d="M14.3494 12C14.8489 12 15.2462 11.6856 15.603 11.2461C16.3333 10.3463 15.1342 9.62723 14.6769 9.27507C14.212 8.91708 13.6929 8.71428 13.1667 8.66667M12.5 7.33333C13.4205 7.33333 14.1667 6.58714 14.1667 5.66667C14.1667 4.74619 13.4205 4 12.5 4" stroke="#585755" stroke-width="1.5" stroke-linecap="round"/>
<path d="M2.65096 12C2.15143 12 1.7541 11.6856 1.39736 11.2461C0.667051 10.3463 1.86611 9.62723 2.32342 9.27507C2.78831 8.91708 3.30738 8.71428 3.83366 8.66667M4.16699 7.33333C3.24652 7.33333 2.50033 6.58714 2.50033 5.66667C2.50033 4.74619 3.24652 4 4.16699 4" stroke="#585755" stroke-width="1.5" stroke-linecap="round"/>
<path d="M5.88953 10.0728C5.20834 10.494 3.42232 11.3541 4.51013 12.4303C5.04151 12.956 5.63334 13.332 6.37741 13.332H10.6232C11.3673 13.332 11.9591 12.956 12.4905 12.4303C13.5783 11.3541 11.7923 10.494 11.1111 10.0728C9.51375 9.0851 7.4869 9.0851 5.88953 10.0728Z" stroke="#585755" stroke-width="1.5" stroke-linecap="round" stroke-linejoin="round"/>
<path d="M10.8337 4.99935C10.8337 6.28801 9.78899 7.33268 8.50033 7.33268C7.21166 7.33268 6.16699 6.28801 6.16699 4.99935C6.16699 3.71068 7.21166 2.66602 8.50033 2.66602C9.78899 2.66602 10.8337 3.71068 10.8337 4.99935Z" stroke="#585755" stroke-width="1.5"/>
</g>
<defs>
<clipPath id="clip0_878_2066">
<rect width="16" height="16" fill="white" transform="translate(0.5)"/>
</clipPath>
</defs>
</svg>
