<svg width="592" height="181" viewBox="0 0 592 181" fill="none" xmlns="http://www.w3.org/2000/svg">
<g clip-path="url(#clip0_528_3862)">
<path d="M90 0.5C40.2889 0.5 0 40.7889 0 90.5C0 140.211 40.2889 180.5 90 180.5C139.711 180.5 180 140.211 180 90.5C180 40.7889 139.711 0.5 90 0.5ZM96.0074 43.5296C96.7778 39.9074 99.0296 31.3889 102.6 27.1667C102.881 26.8333 103.348 26.7444 103.726 26.9296C104.111 27.1222 104.319 27.5444 104.23 27.9667L99.9407 48.1519C99.7481 49.063 100.326 49.9593 101.244 50.1518L101.341 50.1741C101.778 50.2704 102.23 50.1741 102.615 49.937C102.985 49.6926 103.252 49.3148 103.341 48.8704L107.585 28.9074C107.8 27.9 108.785 27.2556 109.793 27.4704C110.267 27.5741 110.681 27.8556 110.948 28.2704C111.207 28.6778 111.304 29.1741 111.2 29.6481L106.948 49.6481C106.756 50.5593 107.341 51.4556 108.252 51.6481L108.348 51.6704C108.785 51.7667 109.244 51.6704 109.622 51.4333C109.993 51.1889 110.259 50.8111 110.348 50.3741L114.6 30.3741C114.696 29.9 114.978 29.4852 115.393 29.2185C115.8 28.9593 116.296 28.863 116.77 28.9667H116.8C117.793 29.1815 118.422 30.1593 118.215 31.1444L113.963 51.1444C113.77 52.0556 114.348 52.9519 115.267 53.1444L115.363 53.1667C115.8 53.263 116.259 53.1667 116.637 52.9296C117.007 52.6852 117.274 52.3074 117.363 51.8704L121.637 31.7741C121.733 31.3444 122.111 31.0333 122.556 31.0333C123 31.0333 123.378 31.3444 123.474 31.7815C124.615 37.2333 123.03 45.9296 122.348 49.1444C120.252 58.9815 115.074 66.3963 108.178 66.5L104.022 90.8185C100.874 92.1815 97.8222 93.8111 94.8815 95.6704L102.622 65.3222C95.6592 62.2778 93.9481 53.3889 96.0296 43.5518L96.0074 43.5296ZM67.5259 25.0259C75.9556 23.2333 84.6815 30.6111 86.9926 41.5148C89.0889 51.3518 85.2518 60.6852 78.9926 63.5815L87.3037 96.1815C84.3259 94.2407 81.1926 92.5222 77.9333 91.0704L73.4444 64.7593C65.837 64.8111 58.5407 57.8407 56.4519 48.0037C54.1333 37.1074 59.0889 26.8185 67.5259 25.0259ZM28.7111 89.4259C69.1852 81.1444 107.23 108.952 112.948 148.456C104.6 147.115 72.0296 139.663 49.8889 118.381C49.8889 118.381 67.5704 148.411 113.533 154.019C113.533 154.056 113.533 154.085 113.533 154.115C70.2148 171.648 23.2667 136.485 28.7037 89.4185L28.7111 89.4259ZM118.267 151.959C117.474 143.019 115.119 134.552 111.496 126.796C124.459 117.856 132.111 112.463 138.57 100.7C133.415 108.07 118.763 117.115 109.311 122.47C105.311 115.167 100.163 108.596 94.0815 103.011C106.089 93.6037 121.2 87.9815 137.637 87.9815C142.519 87.9815 147.289 88.4778 151.896 89.4185C152.17 91.7815 152.326 94.1741 152.326 96.6111C152.326 120.804 138.467 141.737 118.267 151.959Z" fill="#009F67"/>
</g>
<path d="M228.582 137.5V43.6333H288.791V58.2497H245.746V80.6436H282.622V95.26H245.746V122.884H288.791V137.5H228.582ZM317.723 139.109C313.789 139.109 310.124 138.305 306.727 136.695C303.33 135.086 300.559 132.807 298.413 129.857C296.357 126.817 295.329 123.241 295.329 119.129C295.329 114.212 296.536 110.189 298.95 107.06C301.363 103.931 304.671 101.607 308.873 100.087C313.164 98.5677 317.946 97.8078 323.221 97.8078H339.044C339.044 94.7683 338.552 92.2205 337.569 90.1644C336.675 88.1082 335.289 86.5438 333.412 85.471C331.624 84.3089 329.389 83.7278 326.707 83.7278C323.578 83.7278 320.762 84.443 318.259 85.8733C315.846 87.2143 314.371 89.4939 313.834 92.7122H296.67C297.117 87.8848 298.771 83.7278 301.632 80.2413C304.492 76.7549 308.157 74.0729 312.627 72.1956C317.097 70.3183 321.88 69.3796 326.976 69.3796C333.233 69.3796 338.508 70.5418 342.799 72.8661C347.179 75.1904 350.532 78.4981 352.856 82.7891C355.18 86.9908 356.342 91.997 356.342 97.8078V118.056C356.521 120.023 357.236 121.364 358.488 122.079C359.739 122.794 361.393 123.152 363.449 123.152V137.5C359.248 137.5 355.717 137.098 352.856 136.293C350.085 135.489 347.805 134.326 346.017 132.807C344.229 131.198 342.709 129.186 341.458 126.772C339.402 130.259 336.183 133.209 331.803 135.623C327.512 137.947 322.819 139.109 317.723 139.109ZM322.684 125.297C325.635 125.297 328.316 124.627 330.73 123.286C333.233 121.945 335.245 120.068 336.764 117.654C338.284 115.24 339.044 112.469 339.044 109.34V108.804H324.294C322.327 108.804 320.45 109.117 318.662 109.742C316.874 110.279 315.443 111.173 314.371 112.424C313.298 113.586 312.761 115.195 312.761 117.252C312.761 120.023 313.7 122.079 315.577 123.42C317.544 124.672 319.913 125.297 322.684 125.297ZM391.914 137.5C384.763 137.5 379.354 135.757 375.689 132.27C372.113 128.784 370.325 123.554 370.325 116.581V85.3369H361.743V70.9888H370.325V54.7632H387.489V70.9888H402.642V85.3369H387.489V116.715C387.489 119.218 388.16 120.917 389.501 121.811C390.842 122.705 392.585 123.152 394.73 123.152H402.642V137.5H391.914ZM410.096 137.5V70.9888H427.126V80.9118C429.45 77.1571 432.4 74.2964 435.976 72.3297C439.552 70.363 443.53 69.3796 447.911 69.3796V87.3484H443.351C437.898 87.3484 433.831 88.6446 431.149 91.2371C428.467 93.8296 427.126 98.1654 427.126 104.244V137.5H410.096ZM462.5 62.4067C459.46 62.4067 456.823 61.3339 454.588 59.1884C452.443 56.9535 451.37 54.3162 451.37 51.2768C451.37 48.1479 452.443 45.5107 454.588 43.3651C456.823 41.2196 459.46 40.1469 462.5 40.1469C465.629 40.1469 468.266 41.2196 470.411 43.3651C472.557 45.5107 473.63 48.1479 473.63 51.2768C473.63 54.3162 472.557 56.9535 470.411 59.1884C468.266 61.3339 465.629 62.4067 462.5 62.4067ZM453.918 137.5V70.9888H471.082V137.5H453.918ZM507.095 137.5C499.943 137.5 494.535 135.757 490.869 132.27C487.293 128.784 485.505 123.554 485.505 116.581V85.3369H476.923V70.9888H485.505V54.7632H502.67V70.9888H517.822V85.3369H502.67V116.715C502.67 119.218 503.34 120.917 504.681 121.811C506.022 122.705 507.765 123.152 509.911 123.152H517.822V137.5H507.095ZM555.354 139.109C548.381 139.109 542.347 137.589 537.252 134.55C532.245 131.51 528.357 127.353 525.585 122.079C522.814 116.805 521.428 110.86 521.428 104.244C521.428 97.182 522.859 91.0583 525.719 85.8733C528.58 80.6883 532.558 76.6655 537.654 73.8048C542.749 70.8547 548.65 69.3796 555.354 69.3796C561.97 69.3796 567.736 70.81 572.653 73.6707C577.659 76.5314 581.548 80.4648 584.319 85.471C587.18 90.4773 588.61 96.2434 588.61 102.769C588.61 103.931 588.565 105.094 588.476 106.256C588.387 107.329 588.252 108.357 588.074 109.34H538.727C538.995 112.469 539.799 115.24 541.14 117.654C542.571 119.978 544.448 121.811 546.772 123.152C549.186 124.403 551.913 125.029 554.952 125.029C558.081 125.029 560.763 124.359 562.998 123.018C565.322 121.677 567.155 119.621 568.496 116.849H586.867C585.615 120.783 583.604 124.448 580.833 127.845C578.061 131.242 574.53 133.969 570.239 136.025C566.037 138.081 561.076 139.109 555.354 139.109ZM538.861 97.9419H570.909C570.82 93.4721 569.166 89.9409 565.948 87.3484C562.819 84.7559 559.109 83.4596 554.818 83.4596C551.153 83.4596 547.756 84.6218 544.627 86.9461C541.498 89.181 539.576 92.8463 538.861 97.9419Z" fill="black"/>
<defs>
<clipPath id="clip0_528_3862">
<rect width="180" height="180" fill="white" transform="translate(0 0.5)"/>
</clipPath>
</defs>
</svg>
