<svg width="448" height="273" viewBox="0 0 448 273" fill="none" xmlns="http://www.w3.org/2000/svg">
<g clip-path="url(#clip0_551_3867)">
<rect x="134" width="180" height="180" rx="90" fill="white"/>
<path d="M224 0C174.289 0 134 40.2889 134 90C134 139.711 174.289 180 224 180C273.711 180 314 139.711 314 90C314 40.2889 273.711 0 224 0ZM230.007 43.0296C230.778 39.4074 233.03 30.8889 236.6 26.6667C236.881 26.3333 237.348 26.2444 237.726 26.4296C238.111 26.6222 238.319 27.0444 238.23 27.4667L233.941 47.6519C233.748 48.563 234.326 49.4593 235.244 49.6518L235.341 49.6741C235.778 49.7704 236.23 49.6741 236.615 49.437C236.985 49.1926 237.252 48.8148 237.341 48.3704L241.585 28.4074C241.8 27.4 242.785 26.7556 243.793 26.9704C244.267 27.0741 244.681 27.3556 244.948 27.7704C245.207 28.1778 245.304 28.6741 245.2 29.1481L240.948 49.1481C240.756 50.0593 241.341 50.9556 242.252 51.1481L242.348 51.1704C242.785 51.2667 243.244 51.1704 243.622 50.9333C243.993 50.6889 244.259 50.3111 244.348 49.8741L248.6 29.8741C248.696 29.4 248.978 28.9852 249.393 28.7185C249.8 28.4593 250.296 28.363 250.77 28.4667H250.8C251.793 28.6815 252.422 29.6593 252.215 30.6444L247.963 50.6444C247.77 51.5556 248.348 52.4519 249.267 52.6444L249.363 52.6667C249.8 52.763 250.259 52.6667 250.637 52.4296C251.007 52.1852 251.274 51.8074 251.363 51.3704L255.637 31.2741C255.733 30.8444 256.111 30.5333 256.556 30.5333C257 30.5333 257.378 30.8444 257.474 31.2815C258.615 36.7333 257.03 45.4296 256.348 48.6444C254.252 58.4815 249.074 65.8963 242.178 66L238.022 90.3185C234.874 91.6815 231.822 93.3111 228.881 95.1704L236.622 64.8222C229.659 61.7778 227.948 52.8889 230.03 43.0518L230.007 43.0296ZM201.526 24.5259C209.956 22.7333 218.681 30.1111 220.993 41.0148C223.089 50.8518 219.252 60.1852 212.993 63.0815L221.304 95.6815C218.326 93.7407 215.193 92.0222 211.933 90.5704L207.444 64.2593C199.837 64.3111 192.541 57.3407 190.452 47.5037C188.133 36.6074 193.089 26.3185 201.526 24.5259ZM162.711 88.9259C203.185 80.6444 241.23 108.452 246.948 147.956C238.6 146.615 206.03 139.163 183.889 117.881C183.889 117.881 201.57 147.911 247.533 153.519C247.533 153.556 247.533 153.585 247.533 153.615C204.215 171.148 157.267 135.985 162.704 88.9185L162.711 88.9259ZM252.267 151.459C251.474 142.519 249.119 134.052 245.496 126.296C258.459 117.356 266.111 111.963 272.57 100.2C267.415 107.57 252.763 116.615 243.311 121.97C239.311 114.667 234.163 108.096 228.081 102.511C240.089 93.1037 255.2 87.4815 271.637 87.4815C276.519 87.4815 281.289 87.9778 285.896 88.9185C286.17 91.2815 286.326 93.6741 286.326 96.1111C286.326 120.304 272.467 141.237 252.267 151.459Z" fill="#009F67"/>
</g>
<path d="M4.74754 272V220.074H38.0545V228.159H14.2426V240.548H34.6422V248.633H14.2426V263.914H38.0545V272H4.74754ZM54.0595 272.89C51.8836 272.89 49.856 272.445 47.9767 271.555C46.0975 270.665 44.5644 269.404 43.3775 267.772C42.2401 266.09 41.6714 264.112 41.6714 261.837C41.6714 259.117 42.339 256.892 43.6743 255.161C45.0095 253.43 46.8393 252.144 49.1636 251.304C51.5374 250.463 54.1831 250.043 57.1009 250.043H65.8542C65.8542 248.361 65.5822 246.952 65.0382 245.814C64.5437 244.677 63.7771 243.811 62.7386 243.218C61.7495 242.575 60.5132 242.254 59.0296 242.254C57.2987 242.254 55.7409 242.649 54.3562 243.441C53.021 244.182 52.205 245.443 51.9083 247.224H42.4132C42.6605 244.553 43.5754 242.254 45.1579 240.325C46.7404 238.396 48.768 236.913 51.2407 235.874C53.7133 234.836 56.3591 234.316 59.178 234.316C62.6397 234.316 65.5575 234.959 67.9312 236.245C70.3545 237.531 72.209 239.361 73.4948 241.734C74.7806 244.059 75.4235 246.828 75.4235 250.043V261.244C75.5224 262.332 75.918 263.074 76.6103 263.469C77.3027 263.865 78.2176 264.063 79.355 264.063V272C77.0307 272 75.0773 271.777 73.4948 271.332C71.9617 270.887 70.7006 270.244 69.7116 269.404C68.7225 268.514 67.8818 267.401 67.1894 266.066C66.052 267.994 64.2717 269.626 61.8484 270.961C59.4747 272.247 56.8784 272.89 54.0595 272.89ZM56.8042 265.25C58.4362 265.25 59.9198 264.879 61.255 264.137C62.6397 263.395 63.7524 262.357 64.5931 261.021C65.4338 259.686 65.8542 258.153 65.8542 256.422V256.125H57.6943C56.6064 256.125 55.5678 256.298 54.5788 256.645C53.5897 256.941 52.7984 257.436 52.205 258.128C51.6116 258.771 51.3148 259.661 51.3148 260.799C51.3148 262.332 51.8341 263.469 52.8726 264.211C53.9606 264.903 55.2711 265.25 56.8042 265.25ZM95.1015 272C91.1452 272 88.1533 271.036 86.1257 269.107C84.1476 267.178 83.1585 264.285 83.1585 260.428V243.144H78.4109V235.207H83.1585V226.231H92.6536V235.207H101.036V243.144H92.6536V260.502C92.6536 261.887 93.0245 262.826 93.7663 263.321C94.5081 263.815 95.4724 264.063 96.6593 264.063H101.036V272H95.1015ZM105.159 272V235.207H114.58V240.696C115.866 238.619 117.498 237.036 119.476 235.948C121.454 234.86 123.655 234.316 126.078 234.316V244.257H123.556C120.539 244.257 118.289 244.974 116.806 246.408C115.322 247.842 114.58 250.24 114.58 253.603V272H105.159ZM134.149 230.459C132.467 230.459 131.008 229.866 129.772 228.679C128.585 227.442 127.992 225.983 127.992 224.302C127.992 222.571 128.585 221.112 129.772 219.925C131.008 218.739 132.467 218.145 134.149 218.145C135.88 218.145 137.339 218.739 138.525 219.925C139.712 221.112 140.306 222.571 140.306 224.302C140.306 225.983 139.712 227.442 138.525 228.679C137.339 229.866 135.88 230.459 134.149 230.459ZM129.401 272V235.207H138.896V272H129.401ZM158.818 272C154.862 272 151.87 271.036 149.843 269.107C147.864 267.178 146.875 264.285 146.875 260.428V243.144H142.128V235.207H146.875V226.231H156.37V235.207H164.753V243.144H156.37V260.502C156.37 261.887 156.741 262.826 157.483 263.321C158.225 263.815 159.189 264.063 160.376 264.063H164.753V272H158.818ZM185.515 272.89C181.658 272.89 178.32 272.049 175.501 270.368C172.731 268.687 170.58 266.387 169.047 263.469C167.514 260.551 166.748 257.263 166.748 253.603C166.748 249.696 167.539 246.309 169.121 243.441C170.704 240.572 172.905 238.347 175.723 236.764C178.542 235.132 181.806 234.316 185.515 234.316C189.175 234.316 192.365 235.108 195.084 236.69C197.854 238.273 200.005 240.449 201.538 243.218C203.121 245.987 203.912 249.177 203.912 252.787C203.912 253.43 203.887 254.073 203.838 254.716C203.788 255.309 203.714 255.878 203.615 256.422H176.317C176.465 258.153 176.91 259.686 177.652 261.021C178.443 262.307 179.482 263.321 180.768 264.063C182.103 264.755 183.611 265.101 185.293 265.101C187.024 265.101 188.507 264.73 189.743 263.989C191.029 263.247 192.043 262.109 192.785 260.576H202.948C202.255 262.752 201.143 264.78 199.609 266.659C198.076 268.538 196.123 270.047 193.749 271.184C191.425 272.321 188.68 272.89 185.515 272.89ZM176.391 250.117H194.12C194.071 247.644 193.156 245.691 191.375 244.257C189.645 242.822 187.592 242.105 185.218 242.105C183.191 242.105 181.312 242.748 179.581 244.034C177.85 245.27 176.787 247.298 176.391 250.117ZM213.422 272L202.443 235.207H212.013L218.615 263.173L225.736 235.207H235.75L242.723 263.098L249.325 235.207H258.375L247.471 271.926H237.308L230.484 246.259L223.659 272H213.422ZM265.057 230.459C263.375 230.459 261.917 229.866 260.68 228.679C259.493 227.442 258.9 225.983 258.9 224.302C258.9 222.571 259.493 221.112 260.68 219.925C261.917 218.739 263.375 218.145 265.057 218.145C266.788 218.145 268.247 218.739 269.433 219.925C270.62 221.112 271.214 222.571 271.214 224.302C271.214 225.983 270.62 227.442 269.433 228.679C268.247 229.866 266.788 230.459 265.057 230.459ZM260.309 272V235.207H269.804V272H260.309ZM289.726 272C285.77 272 282.778 271.036 280.751 269.107C278.772 267.178 277.783 264.285 277.783 260.428V243.144H273.036V235.207H277.783V226.231H287.278V235.207H295.661V243.144H287.278V260.502C287.278 261.887 287.649 262.826 288.391 263.321C289.133 263.815 290.097 264.063 291.284 264.063H295.661V272H289.726ZM299.784 272V220.074H309.205V239.509C310.491 237.778 312.197 236.492 314.324 235.652C316.5 234.761 318.676 234.316 320.851 234.316C325.104 234.316 328.591 235.701 331.311 238.47C334.031 241.19 335.391 245.147 335.391 250.339V272H325.97V251.6C325.97 248.831 325.253 246.606 323.819 244.924C322.434 243.193 320.382 242.328 317.662 242.328C314.942 242.328 312.84 243.193 311.356 244.924C309.922 246.606 309.205 248.831 309.205 251.6V272H299.784ZM339.955 272V220.074H349.45V272H339.955ZM369.089 272.89C365.924 272.89 363.229 272.223 361.003 270.887C358.778 269.503 357.072 267.623 355.885 265.25C354.698 262.826 354.105 260.082 354.105 257.016V235.207H363.525V255.606C363.525 258.326 364.218 260.551 365.602 262.282C367.037 264.013 369.114 264.879 371.834 264.879C374.652 264.879 376.754 264.038 378.139 262.357C379.524 260.675 380.216 258.425 380.216 255.606V235.207H389.711V272H380.216V267.698C378.98 269.379 377.348 270.665 375.32 271.555C373.342 272.445 371.265 272.89 369.089 272.89ZM394.868 272V220.074H404.363V272H394.868ZM424.003 272.89C420.838 272.89 418.142 272.223 415.917 270.887C413.692 269.503 411.986 267.623 410.799 265.25C409.612 262.826 409.018 260.082 409.018 257.016V235.207H418.439V255.606C418.439 258.326 419.132 260.551 420.516 262.282C421.95 264.013 424.027 264.879 426.747 264.879C429.566 264.879 431.668 264.038 433.053 262.357C434.437 260.675 435.13 258.425 435.13 255.606V235.207H444.625V272H435.13V267.698C433.893 269.379 432.261 270.665 430.234 271.555C428.256 272.445 426.179 272.89 424.003 272.89Z" fill="black"/>
<defs>
<clipPath id="clip0_551_3867">
<rect x="134" width="180" height="180" rx="90" fill="white"/>
</clipPath>
</defs>
</svg>
